# xmcd
#
# Track frame offsets:
#	150
#	13715
#	23151
#	37679
#	44032
#	50566
#	59910
#	71822
#	81352
#	92114
#	108104
#	127005
#	135130
#	146055
#	155599
#	166515
#	183222
#	198032
#	208548
#	221352
#	225527
#	235963
#	250798
#	260285
#	272808
#	285467
#	300262
#	307564
#	316833
#	328332
#	337795
#
# Disc length: 4718 seconds
#
# Revision: 0
# Processed by: cddbd v1.5.1PL2 Copyright (c) Steve Scherf et al.
# Submitted via: dBpowerAMP V4.0
#
DISCID=a5126c1f
DTITLE=Roll Deep - Aim High Vol. 03
DYEAR=2006
DGENRE=Grime
TTITLE0=Roll Deep - Progress
TTITLE1=Skepta - What Dya Mean Freestyle
TTITLE2=All In One - Freestyle
TTITLE3=Aligator Riddim - Breeze
TTITLE4=Aligator Riddim - Jammer
TTITLE5=Aligator Riddim - Riko
TTITLE6=Aligator Riddim - Killa P
TTITLE7=Aligator Riddim - Scratchy
TTITLE8=Aligator Riddim - Flowdan
TTITLE9=Alex Mills - Streets We Live
TTITLE10=Roll Deep - New Dawn
TTITLE11=Brazen - Freestyle
TTITLE12=Nikki S and Nyke - Freestyle
TTITLE13=Trim, Stamina, Soldier Kid and J Deep - Freestyle
TTITLE14=Doctor - Being Me
TTITLE15=Ruff Sqwad - Freestyle
TTITLE16=Roll Deep Ft. Killa P - Runaway
TTITLE17=Alex Mills - Burning
TTITLE18=Riko Ft. Dom P and Manga - Won't Give It Up
TTITLE19=Bruza - Freestyle
TTITLE20=Stamina, All In One and Desperado - Shoottz In The Borough
TTITLE21=Essentials Ft. Dog Z - Beat Around The Bush
TTITLE22=Jet Le - Knock Em Out The Box
TTITLE23=Mega Montana - Freestyle
TTITLE24=Discarda - Freestyle
TTITLE25=Brazen - Skippy Flows
TTITLE26=Dream - Freestyle
TTITLE27=Wiley - I Like
TTITLE28=Dog Z - Nightshift
TTITLE29=Raws - Freestyle
TTITLE30=Syer - Freestyle
EXTD=
EXTT0=
EXTT1=
EXTT2=
EXTT3=
EXTT4=
EXTT5=
EXTT6=
EXTT7=
EXTT8=
EXTT9=
EXTT10=
EXTT11=
EXTT12=
EXTT13=
EXTT14=
EXTT15=
EXTT16=
EXTT17=
EXTT18=
EXTT19=
EXTT20=
EXTT21=
EXTT22=
EXTT23=
EXTT24=
EXTT25=
EXTT26=
EXTT27=
EXTT28=
EXTT29=
EXTT30=
PLAYORDER=
